<svg id="a49c1a13-7ae2-4568-adbb-206b56286a21" data-name="Layer 5" xmlns="http://www.w3.org/2000/svg" xmlns:xlink="http://www.w3.org/1999/xlink" viewBox="0 0 309.8506 41.8775"><defs><style>.a5081eef-340b-47cd-9820-9661f5bb559a{fill:#abd3f1;}.bb2ecf52-e792-4799-a412-65828c6a48a3{fill:#923a8e;}.e784170d-5fce-42d5-97bc-e669324c3bcf{fill:#5b1e56;}.ab6a6364-90d4-4331-9517-507dbf79ecd2{fill:url(#f2dd8d31-2bcb-4b79-80f6-0d552963ddd7);}.e7c59936-afa6-425d-b651-eae81677e45d{fill:url(#a75e8cef-c1d5-4639-899d-22e5ba0155da);}.a429eb29-22fd-45a9-9c4b-4b200f383015{fill:url(#a47bcb5c-3da7-4f8c-8a8e-3a84a7c0c7f2);}.abc10f20-62e2-4cc8-970b-6cabd084376e{fill:#010101;}.a483b9a3-be9f-46ee-a418-fd6c67d12031{fill:none;stroke:#010101;stroke-miterlimit:10;}.e2d4e3e0-0c0a-4b01-be6f-30f2a2548be2{fill:url(#a68b3092-2e83-4990-ac93-c4d8fa7e02fb);}.b2889139-2217-4ad9-93a7-a0183518be0a{fill:#fff;}</style><linearGradient id="f2dd8d31-2bcb-4b79-80f6-0d552963ddd7" x1="24.5598" y1="1249.3601" x2="24.5598" y2="1221.7146" gradientTransform="translate(0 -1215.2283)" gradientUnits="userSpaceOnUse"><stop offset="0" stop-color="#a0ceef"/><stop offset="1" stop-color="#53b2e5"/></linearGradient><linearGradient id="a75e8cef-c1d5-4639-899d-22e5ba0155da" x1="13.3504" y1="1221.7146" x2="13.3504" y2="1249.3601" gradientTransform="translate(0 -1215.2283)" gradientUnits="userSpaceOnUse"><stop offset="0" stop-color="#c3e5f6"/><stop offset="1" stop-color="#2aabe2"/></linearGradient><radialGradient id="a47bcb5c-3da7-4f8c-8a8e-3a84a7c0c7f2" cx="19.363" cy="1232.2672" r="8.2989" gradientTransform="translate(0 -1215.2283)" gradientUnits="userSpaceOnUse"><stop offset="0.1399" stop-color="#fff"/><stop offset="1" stop-color="#faea27"/></radialGradient><linearGradient id="a68b3092-2e83-4990-ac93-c4d8fa7e02fb" x1="251.1839" y1="20.5411" x2="309.8506" y2="20.5411" gradientUnits="userSpaceOnUse"><stop offset="0" stop-color="#e31c56"/><stop offset="0.4346" stop-color="#8d2d73"/><stop offset="0.8209" stop-color="#473b8a"/><stop offset="1" stop-color="#2c4093"/></linearGradient></defs><g id="b6598293-28c1-4bc8-a055-2ff7281712cd" data-name="Logo"><path class="a5081eef-340b-47cd-9820-9661f5bb559a" d="M35.58,20.2775A17.8727,17.8727,0,0,1,17.6326,38.0991V2.456A17.8727,17.8727,0,0,1,35.58,20.2775Z"/><path class="bb2ecf52-e792-4799-a412-65828c6a48a3" d="M0,20.2775A17.7657,17.7657,0,0,1,17.6326,2.456V38.0991A17.7657,17.7657,0,0,1,0,20.2775Z"/><path class="e784170d-5fce-42d5-97bc-e669324c3bcf" d="M17.6956,34.1318a13.8543,13.8543,0,0,1,0-27.7085Z"/><path class="ab6a6364-90d4-4331-9517-507dbf79ecd2" d="M31.4869,20.2775A13.8545,13.8545,0,0,1,17.6326,34.1318V6.4863A13.8009,13.8009,0,0,1,31.4869,20.2775Z"/><path class="e7c59936-afa6-425d-b651-eae81677e45d" d="M17.6326,34.1318c-4.723,0-8.5644-6.1715-8.5644-13.8543S12.91,6.4863,17.6326,6.4863Z"/><path class="a429eb29-22fd-45a9-9c4b-4b200f383015" d="M17.8216,10.6426a1.8632,1.8632,0,0,0-.63.1259c-3.1487.3779-5.6676,4.5341-5.6676,9.572,0,5.29,2.7708,9.635,6.1714,9.635h0a9.6667,9.6667,0,1,0,.126-19.3329Z"/><path class="abc10f20-62e2-4cc8-970b-6cabd084376e" d="M63.0367,11.65l-2.33,4.03a7.0852,7.0852,0,0,0-5.1009-1.7633,6.2673,6.2673,0,0,0-4.849,2.0152,8.089,8.089,0,0,0-1.7632,5.6046c0,4.849,2.33,7.242,6.9271,7.242a7.8672,7.8672,0,0,0,5.29-1.9522l1.9522,4.2193a13.929,13.929,0,0,1-4.0933,1.8262,19.9107,19.9107,0,0,1-4.1563.3778,11.4171,11.4171,0,0,1-8.4385-3.0857c-2.0781-2.0781-3.0857-4.9749-3.0857-8.6274A11.8624,11.8624,0,0,1,46.79,12.7207c2.2671-2.2041,5.29-3.3376,9.1942-3.3376A11.136,11.136,0,0,1,63.0367,11.65Z"/><path class="abc10f20-62e2-4cc8-970b-6cabd084376e" d="M65.9965,21.2851a12.1625,12.1625,0,0,1,3.0227-8.5644,10.4034,10.4034,0,0,1,7.9977-3.3376q5.29,0,8.1236,3.2116a12.6931,12.6931,0,0,1,2.8968,8.69,12.5857,12.5857,0,0,1-2.96,8.7534,10.4325,10.4325,0,0,1-8.0606,3.2746c-3.5265,0-6.2344-1.07-8.1866-3.2746A13.3981,13.3981,0,0,1,65.9965,21.2851Zm5.6047,0c0,5.1009,1.8262,7.62,5.4787,7.62a4.5709,4.5709,0,0,0,3.9673-1.9521,9.1287,9.1287,0,0,0,1.4484-5.6047c0-4.9749-1.8262-7.4939-5.4787-7.4939A4.5713,4.5713,0,0,0,73.05,15.8064,9.0163,9.0163,0,0,0,71.6012,21.2851Z"/><path class="abc10f20-62e2-4cc8-970b-6cabd084376e" d="M107.2443,32.8093V31.4239a4.7679,4.7679,0,0,1-2.2671,1.2595,10.5921,10.5921,0,0,1-10.8314-2.456c-1.8263-2.0152-2.7709-4.849-2.7709-8.5015a12.6445,12.6445,0,0,1,3.1487-8.8793,10.4791,10.4791,0,0,1,7.9347-3.4005,10.8989,10.8989,0,0,1,4.786,1.0705V1.26L112.5971,0V32.8723l-5.3528-.063Zm0-17.5067a5.49,5.49,0,0,0-3.59-1.3854A6.3187,6.3187,0,0,0,98.68,15.8694a8.1539,8.1539,0,0,0-1.7633,5.6676c0,4.786,2.33,7.179,6.9271,7.179a5.0021,5.0021,0,0,0,1.8892-.4408,3.1457,3.1457,0,0,0,1.4484-.9446l.063-12.028Z"/><path class="abc10f20-62e2-4cc8-970b-6cabd084376e" d="M138.5422,22.9854H122.1061a6.0492,6.0492,0,0,0,1.8892,4.2822,6.8016,6.8016,0,0,0,4.66,1.5114A7.7371,7.7371,0,0,0,134.26,26.89l2.0782,4.0933c-1.8893,1.5114-4.7231,2.33-8.4385,2.33-3.5266,0-6.2974-1.0076-8.3126-3.0857s-3.0857-4.912-3.0857-8.6274a12.069,12.069,0,0,1,3.3376-8.8163A10.9483,10.9483,0,0,1,127.9,9.3831a11.1448,11.1448,0,0,1,8.0606,2.96,10.2969,10.2969,0,0,1,3.0228,7.62A13.7562,13.7562,0,0,1,138.5422,22.9854Zm-16.2472-4.03H133.63c-.3779-3.3376-2.2041-5.0379-5.6047-5.0379C124.94,13.8542,123.0507,15.5545,122.295,18.9551Z"/><path class="abc10f20-62e2-4cc8-970b-6cabd084376e" d="M148.24,32.2426v9.6349h-5.3528V9.8239H148.24v1.5743a6.7887,6.7887,0,0,1,4.9749-1.9521c7.305,0,11.02,4.03,11.02,12.0909q0,5.6676-3.0227,8.69T152.9,33.25A10.1406,10.1406,0,0,1,148.24,32.2426Zm0-16.814V27.52a5.1048,5.1048,0,0,0,3.4006,1.1965c2.456,0,4.2822-.5667,5.3527-1.7632s1.6374-3.0228,1.6374-5.6047c0-2.7079-.5668-4.66-1.6374-5.7306C155.923,14.484,154.16,13.98,151.6408,13.98A4.4,4.4,0,0,0,148.24,15.4286Z"/><path class="abc10f20-62e2-4cc8-970b-6cabd084376e" d="M169.84,1.26,175.193,0V25.8822c0,2.8338.8186,4.5341,2.5189,5.1009a4.4576,4.4576,0,0,1-4.2822,2.393c-2.456,0-3.6524-1.7-3.6524-5.1009L169.84,1.26Z"/><path class="abc10f20-62e2-4cc8-970b-6cabd084376e" d="M194.7148,30.5423a5.1215,5.1215,0,0,1-2.5189,1.9522,9.64,9.64,0,0,1-3.7784.7556,8.6153,8.6153,0,0,1-5.8566-1.8892,6.6165,6.6165,0,0,1-2.1411-5.29,7.3651,7.3651,0,0,1,3.0227-6.2344q3.0228-2.267,8.5015-2.267a10.2863,10.2863,0,0,1,2.2041.3148c0-2.7078-1.7-4.0933-5.1639-4.0933a11.3392,11.3392,0,0,0-5.1009,1.0076L182.75,10.6426A15.0975,15.0975,0,0,1,189.3621,9.32c3.5265,0,6.1084.8187,7.7457,2.393s2.456,4.5971,2.456,9.0682v4.912c0,3.0857.63,4.9749,1.8262,5.7936a3.0042,3.0042,0,0,1-1.5113,1.4484,5.9681,5.9681,0,0,1-1.8892.2519,3.079,3.079,0,0,1-2.0782-.8817A3.5492,3.5492,0,0,1,194.7148,30.5423Zm-.5038-8.5645a10.5924,10.5924,0,0,0-2.0781-.2519c-4.2192,0-6.36,1.3855-6.36,4.1563,0,2.0781,1.1965,3.0857,3.5895,3.0857,3.2116,0,4.849-1.6373,4.849-4.849V21.9778Z"/><path class="abc10f20-62e2-4cc8-970b-6cabd084376e" d="M215.5591,36.5248a7.5208,7.5208,0,0,1-3.7154,3.8414,13.8467,13.8467,0,0,1-6.6123,1.5113v-4.723c4.1563,0,6.2344-1.07,6.2344-3.0857a19.179,19.179,0,0,0-1.7-6.2974l-7.179-17.8845h5.5417l6.2974,15.9323,5.6676-15.9323h5.5417Z"/><g id="b8975dc1-b4bf-4833-b7ba-1d47ce49ba02" data-name="Hand"><circle class="a483b9a3-be9f-46ee-a418-fd6c67d12031" cx="234.5142" cy="5.3528" r="4.1563"/><path class="abc10f20-62e2-4cc8-970b-6cabd084376e" d="M235.6478,7.179s.5667-.4408.6927-.5038c0,0,.5668-.3149.5668-.3778,0,0,.3148-.126.1259-.3779,0,0-.3149-.3148-.8816.189,0,0-.126.1259-.1889.1259,0,0-.5038.3778-.5668.3149a.5475.5475,0,0,1,0-.5668,2.7367,2.7367,0,0,0,.2519-.4408.47.47,0,0,1,.1889-.1889s.2519-.3149.3149-.3779a4.4236,4.4236,0,0,0,.3778-.5667.9063.9063,0,0,1,.126-.189s.3778-.5667.1889-.6927c0,0-.1889-.3148-.5038.189l-.1259.1889a2.5138,2.5138,0,0,1-.189.2519,2.4011,2.4011,0,0,0-.3148.3778,3.1982,3.1982,0,0,0-.3779.4408s-.1259.126-.1889.126c0,0-.1259.0629.063-.1889a4.5675,4.5675,0,0,0,.3149-.5668s.3778-.63.3148-.6927l.2519-.5038s.1889-.3149-.1259-.4408c0,0-.2519,0-.3779.3778l-.2519.4408a3.514,3.514,0,0,0-.3148.5038s-.4409.63-.5038.7557c0,0-.1889.126-.063-.1889a2.5946,2.5946,0,0,0,.126-.5668s.1889-.4408.1259-.5038a.44.44,0,0,0,.126-.2519s.3778-.5038.1259-.63c0,0-.1889-.1889-.4408.1889a1.5052,1.5052,0,0,0-.1889.4408,4.1945,4.1945,0,0,0-.3779.7557,3.8564,3.8564,0,0,1-.3148.7557s-.2519.063-.1889-.1889V3.7784a1.1088,1.1088,0,0,1,.0629-.3778s.126-.5038-.0629-.5668c0,0-.3149-.1259-.3779.6927,0,0-.063.5038-.063.63,0,0-.0629.6927-.0629.8186a7.2422,7.2422,0,0,1-.3779,1.0706,8.6871,8.6871,0,0,0-.063.8816.9016.9016,0,0,0,.63.6927l.3148.2519s.5668.2519.8817.063A4.2677,4.2677,0,0,0,235.6478,7.179Z"/></g></g><g id="b886d8fc-342d-4ded-b3c1-d840abddc3ed" data-name="Badge"><rect class="e2d4e3e0-0c0a-4b01-be6f-30f2a2548be2" x="251.1839" y="10.4968" width="58.6667" height="20.0886" rx="2.8036"/></g><g id="a90aa01e-096f-42c0-a736-d08309898b1a" data-name="Text"><path class="b2889139-2217-4ad9-93a7-a0183518be0a" d="M259.2533,23.8511h-1.587V16.7026q1.5185-.0534,1.9092-.0537a3.3488,3.3488,0,0,1,2.4781.9156,3.2833,3.2833,0,0,1,.9155,2.4292Q262.9691,23.8513,259.2533,23.8511Zm-.3174-6.04v4.8828q.3077.0294.664.0293a1.8042,1.8042,0,0,0,1.5064-.6982,3.1086,3.1086,0,0,0,.5444-1.9531q0-2.2947-2.1338-2.2949Q259.3119,17.7769,258.9359,17.811Z"/><path class="b2889139-2217-4ad9-93a7-a0183518be0a" d="M268.6869,21.61h-3.7354a1.3267,1.3267,0,0,0,.43.9716,1.5585,1.5585,0,0,0,1.0644.3467,1.7209,1.7209,0,0,0,1.27-.4345l.4736.9326a3.0082,3.0082,0,0,1-1.9238.5224,2.5462,2.5462,0,0,1-1.8921-.7007,2.6544,2.6544,0,0,1-.6958-1.9555,2.7135,2.7135,0,0,1,.7641-2.002,2.68,2.68,0,0,1,3.66-.0879,2.3244,2.3244,0,0,1,.6885,1.7286A3.4129,3.4129,0,0,1,268.6869,21.61Zm-3.6915-.918h2.5684a1.147,1.147,0,0,0-1.2695-1.1475A1.2566,1.2566,0,0,0,264.9954,20.6919Z"/><path class="b2889139-2217-4ad9-93a7-a0183518be0a" d="M271.9339,23.9487h-.4394l-2.3633-5.3271h1.3379l1.25,3.1933,1.3428-3.1933h1.2939Z"/><path class="b2889139-2217-4ad9-93a7-a0183518be0a" d="M279.7074,21.61H275.972a1.3267,1.3267,0,0,0,.43.9716,1.5587,1.5587,0,0,0,1.0645.3467,1.7209,1.7209,0,0,0,1.2695-.4345l.4736.9326a3.0082,3.0082,0,0,1-1.9238.5224,2.5462,2.5462,0,0,1-1.8921-.7007,2.6544,2.6544,0,0,1-.6958-1.9555,2.7132,2.7132,0,0,1,.7642-2.002,2.68,2.68,0,0,1,3.66-.0879,2.3244,2.3244,0,0,1,.6885,1.7286A3.4129,3.4129,0,0,1,279.7074,21.61Zm-3.6914-.918h2.5683a1.147,1.147,0,0,0-1.2695-1.1475A1.2564,1.2564,0,0,0,276.016,20.6919Z"/><path class="b2889139-2217-4ad9-93a7-a0183518be0a" d="M280.9964,16.6733l1.2207-.2929v5.8789q0,.9668.5762,1.1523a1.0035,1.0035,0,0,1-.9668.5371q-.83,0-.83-1.1523Z"/><path class="b2889139-2217-4ad9-93a7-a0183518be0a" d="M283.3939,21.2241a2.7679,2.7679,0,0,1,.6909-1.9482,2.6573,2.6573,0,0,1,3.6743-.0293,2.824,2.824,0,0,1,.6592,1.9775,2.8379,2.8379,0,0,1-.6714,1.9873,2.6693,2.6693,0,0,1-3.6914-.0073A2.8718,2.8718,0,0,1,283.3939,21.2241Zm1.27,0q0,1.7286,1.2451,1.7285a1.0708,1.0708,0,0,0,.9058-.4492,2.1108,2.1108,0,0,0,.3345-1.2793q0-1.7043-1.24-1.7041a1.0771,1.0771,0,0,0-.9082.4492A2.0538,2.0538,0,0,0,284.6634,21.2241Z"/><path class="b2889139-2217-4ad9-93a7-a0183518be0a" d="M290.5179,23.7192v2.1827h-1.2207v-7.28h1.2207v.3515a1.5518,1.5518,0,0,1,1.1279-.4492q2.5,0,2.5,2.7539a2.6821,2.6821,0,0,1-.6909,1.9776,2.5442,2.5442,0,0,1-1.8872.6933A2.3768,2.3768,0,0,1,290.5179,23.7192Zm0-3.8183V22.65a1.1963,1.1963,0,0,0,.7764.2686,1.5792,1.5792,0,0,0,1.2134-.4029,1.8444,1.8444,0,0,0,.3686-1.2719,1.8566,1.8566,0,0,0-.3662-1.3062,1.6327,1.6327,0,0,0-1.2109-.3784A1.0752,1.0752,0,0,0,290.5179,19.9009Z"/><path class="b2889139-2217-4ad9-93a7-a0183518be0a" d="M299.888,21.61h-3.7353a1.3264,1.3264,0,0,0,.43.9716,1.5583,1.5583,0,0,0,1.0644.3467,1.7205,1.7205,0,0,0,1.2695-.4345l.4737.9326a3.0082,3.0082,0,0,1-1.9238.5224,2.546,2.546,0,0,1-1.8921-.7007,2.6544,2.6544,0,0,1-.6958-1.9555,2.7131,2.7131,0,0,1,.7641-2.002,2.68,2.68,0,0,1,3.66-.0879,2.3244,2.3244,0,0,1,.6885,1.7286A3.4073,3.4073,0,0,1,299.888,21.61Zm-3.6914-.918h2.5684a1.147,1.147,0,0,0-1.27-1.1475A1.2565,1.2565,0,0,0,296.1966,20.6919Z"/><path class="b2889139-2217-4ad9-93a7-a0183518be0a" d="M303.99,19.7593a1.2828,1.2828,0,0,0-.7178-.2149.9736.9736,0,0,0-.7544.3858,1.4015,1.4015,0,0,0-.33.9424v2.9785h-1.2207V18.6216h1.2207V19.1a1.7336,1.7336,0,0,1,1.3623-.5762,1.9508,1.9508,0,0,1,.9571.1905Z"/></g></svg>