<svg id="f345c18c-c316-485a-a0ae-7b68dd7ebcc8" data-name="layer" xmlns="http://www.w3.org/2000/svg" viewBox="0 0 600.1 148.6004"><defs><style>.a85fa6d4-304c-4f17-b07a-0fbbd18ae3a4,.e8cac4a3-191c-4748-ae5a-3af9acbe37bb{fill:#fff;}.a85fa6d4-304c-4f17-b07a-0fbbd18ae3a4{fill-rule:evenodd;}</style></defs><path class="e8cac4a3-191c-4748-ae5a-3af9acbe37bb" d="M367.9,114.5h-.2c.1,0,.1.1.2.1h.1Zm0,.1c-.8,0-2.9.4-5.1.4-6.9,0-9.3-3.2-9.3-7.4V79.8h14.1a1.5178,1.5178,0,0,0,1.4-1.7V63a1.5237,1.5237,0,0,0-1.4-1.5H353.5V42.7c0-.7-.5-1.1-1.3-1.1H333a1.0788,1.0788,0,0,0-1.2,1.1V62s-9.7,2.4-10.3,2.5a1.5021,1.5021,0,0,0-1.1,1.5V78.1a1.59,1.59,0,0,0,1.5,1.7h9.8V109c0,21.7,15.1,23.9,25.4,23.9a36.0917,36.0917,0,0,0,11.3-2,1.4862,1.4862,0,0,0,.8-1.4V116.2a1.6049,1.6049,0,0,0-1.3-1.6ZM578.5,95.1c0-16.1-6.5-18.2-13.3-17.5a22.535,22.535,0,0,0-9.6,3v31.3a21.5162,21.5162,0,0,0,10.8,3.2c9.1.2,12.1-3.1,12.1-20Zm21.6-1.4c0,30.5-9.9,39.2-27.1,39.2-14.6,0-22.4-7.4-22.4-7.4s-.3,4.1-.8,4.6a1.3566,1.3566,0,0,1-1.3.7H535.4a1.6551,1.6551,0,0,1-1.7-1.5l.2-98.7a1.538,1.538,0,0,1,1.5-1.5h18.9a1.538,1.538,0,0,1,1.5,1.5V64.1a35.958,35.958,0,0,1,18-4.7l-.1-.2c10.6,0,26.4,4,26.4,34.5ZM522.6,61.6H503.9c-1,0-1.5.7-1.5,1.7v48.3a22.2178,22.2178,0,0,1-11.6,3.4c-6.6,0-8.6-3-8.6-9.7V63.1a1.538,1.538,0,0,0-1.5-1.5h-19a1.538,1.538,0,0,0-1.5,1.5v45.5c0,19.5,10.9,24.4,25.9,24.4,12.4,0,22.4-6.8,22.4-6.8s.5,3.5.7,4a1.6835,1.6835,0,0,0,1.4.8h11.9a1.4152,1.4152,0,0,0,1.5-1.5l.2-66.4a1.4992,1.4992,0,0,0-1.6-1.5ZM312,61.5H293.1a1.6866,1.6866,0,0,0-1.5,1.8v65.2c0,1.8,1.2,2.4,2.7,2.4h17.1c1.8,0,2.2-.8,2.2-2.4V63a1.7082,1.7082,0,0,0-1.6-1.5Zm-9.4-30.1a12.3017,12.3017,0,1,0,12.1,12.3,12.2278,12.2278,0,0,0-12.1-12.3Zm146.6-2.2H430.4a1.538,1.538,0,0,0-1.5,1.5V67H399.5V30.7a1.538,1.538,0,0,0-1.5-1.5H379.1a1.538,1.538,0,0,0-1.5,1.5v98.7a1.6124,1.6124,0,0,0,1.5,1.5H398a1.538,1.538,0,0,0,1.5-1.5V87.2h29.4l-.2,42.2a1.538,1.538,0,0,0,1.5,1.5h18.9a1.538,1.538,0,0,0,1.5-1.5V30.7a1.3914,1.3914,0,0,0-1.4-1.5ZM281.5,72.9v51c0,.3-.1,1-.5,1.1,0,0-11.1,7.9-29.4,7.9-22.1,0-48.4-6.9-48.4-52.6s22.9-55.1,45.3-55c19.4,0,27.2,4.4,28.4,5.2a2.3744,2.3744,0,0,1,.5,1.2l-3.6,15.9a1.51,1.51,0,0,1-1.8,1.5c-3.2-1-8-2.9-19.3-2.9-13.1,0-27.1,3.7-27.1,33.2,0,29.4,13.3,32.9,22.9,32.9,8.2,0,11.1-1,11.1-1V90.9H246.5a1.59,1.59,0,0,1-1.7-1.5V73a1.59,1.59,0,0,1,1.7-1.5h33.3a1.4609,1.4609,0,0,1,1.7,1.4Z"/><path class="a85fa6d4-304c-4f17-b07a-0fbbd18ae3a4" d="M76.2,0A76.2067,76.2067,0,0,0,52.1,148.5c3.8.6,5.3-1.6,5.3-3.6,0-1.8-.1-7.8-.1-14.2-19.1,3.5-24.1-4.7-25.6-8.9-.9-2.2-4.6-9-7.8-10.8-2.7-1.4-6.5-5-.1-5.1,6-.1,10.3,5.5,11.7,7.8,6.9,11.5,17.8,8.3,22.2,6.3.7-4.9,2.7-8.3,4.9-10.2-16.9-1.9-34.7-8.5-34.7-37.6a29.8817,29.8817,0,0,1,7.8-20.5c-.8-1.9-3.4-9.7.8-20.2,0,0,6.4-2,21,7.8a70.7231,70.7231,0,0,1,38,0c14.6-9.9,20.9-7.8,20.9-7.8,4.2,10.5,1.5,18.3.8,20.2A29.2471,29.2471,0,0,1,125,72.2c0,29.2-17.8,35.7-34.8,37.6,2.8,2.4,5.2,6.9,5.2,14.1,0,10.2-.1,18.4-.1,20.9,0,2,1.4,4.4,5.2,3.6A76.1874,76.1874,0,0,0,76.2,0Z"/></svg>