<svg xmlns="http://www.w3.org/2000/svg" viewBox="0 0 1060.6231 855.674"><defs><style>.a4d92128-9c56-4ac9-884e-763b93ff78cc{fill:#3100ff;}.ae36be1b-c2ba-4977-8570-799ae96e0850{fill:#2500ff;}</style></defs><g id="aef0f45f-3909-4304-9d04-58604e1baf47" data-name="Layer 4"><circle class="a4d92128-9c56-4ac9-884e-763b93ff78cc" cx="200.1448" cy="654.6542" r="200.1448"/><circle class="a4d92128-9c56-4ac9-884e-763b93ff78cc" cx="497.7679" cy="356.7813" r="200.1448"/><path class="a4d92128-9c56-4ac9-884e-763b93ff78cc" d="M596.0377,637.6093"/><path class="a4d92128-9c56-4ac9-884e-763b93ff78cc" d="M795.3912,478.3843a177.1448,177.1448,0,1,1-125.26,51.8846,175.9851,175.9851,0,0,1,125.26-51.8846m0-23c-110.5371,0-200.1449,89.6081-200.1449,200.1449S684.8541,855.674,795.3912,855.674,995.536,766.0661,995.536,655.5292,905.928,455.3843,795.3912,455.3843Z"/><rect class="a4d92128-9c56-4ac9-884e-763b93ff78cc" x="697.9127" y="156.6365" width="77.1885" height="22.5417"/><rect class="a4d92128-9c56-4ac9-884e-763b93ff78cc" x="972.9942" y="260.1761" width="22.5417" height="77.1885"/><rect class="a4d92128-9c56-4ac9-884e-763b93ff78cc" x="813.9346" y="156.6365" width="77.1885" height="22.5417"/><rect class="a4d92128-9c56-4ac9-884e-763b93ff78cc" x="491.7679" y="156.6365" width="167.3115" height="22.5417"/><polygon class="a4d92128-9c56-4ac9-884e-763b93ff78cc" points="995.536 156.636 995.536 0 972.994 0 972.994 156.636 929.956 156.636 929.956 179.178 972.994 179.178 972.994 221.343 995.536 221.343 995.536 179.178 1060.623 179.178 1060.623 156.636 995.536 156.636"/><rect class="a4d92128-9c56-4ac9-884e-763b93ff78cc" x="972.9942" y="492.2198" width="22.5417" height="172.9686"/><rect class="a4d92128-9c56-4ac9-884e-763b93ff78cc" x="972.9942" y="376.1981" width="22.5417" height="77.1885"/><path class="ae36be1b-c2ba-4977-8570-799ae96e0850" d="M651.1226,363.707l23.8015,23.8015a94.753,94.753,0,0,0,51.6346,80.8235A200.5128,200.5128,0,0,0,608.0754,587.2278a94.7229,94.7229,0,0,0-84.6538-52.3761q-.1308,0-.2617,0l-21.5912-21.5912L651.1226,363.707m0-31.1128L470.456,513.2608l44.1433,44.1434A72.5033,72.5033,0,0,1,595.4851,638.29L618.12,660.9243c-.0536-1.7925-.089-3.59-.089-5.3951A177.4819,177.4819,0,0,1,795.5123,478.0473c.36,0,.7175.0115,1.0771.0136L774.94,456.4117c-1.8057.1345-3.6236.2258-5.4634.2258a72.6161,72.6161,0,0,1-72.6162-72.6161c0-1.84.0913-3.6578.2256-5.4634l-45.9637-45.9638Z"/></g><g id="a33a4cb7-a61b-4c7d-9de8-2f7f8dfe911c" data-name="Layer 5"><path class="a4d92128-9c56-4ac9-884e-763b93ff78cc" d="M298.4145,374.7012"/><path class="a4d92128-9c56-4ac9-884e-763b93ff78cc" d="M399.2375,628.2891a72.6161,72.6161,0,0,1,72.6161-72.6161c1.84,0,3.6577.0913,5.4634.2257l67.68-67.6795L364.33,307.5526l-66.468,66.4679a72.504,72.504,0,0,1-80.8858,80.8858L172.8328,499.05,353.5,679.7163l45.9637-45.9638C399.3288,631.9468,399.2375,630.1291,399.2375,628.2891Z"/></g></svg>