<?xml version="1.0" encoding="utf-8"?>
<!-- Generator: Adobe Illustrator 24.3.0, SVG Export Plug-In . SVG Version: 6.00 Build 0)  -->
<svg version="1.1" xmlns="http://www.w3.org/2000/svg" xmlns:xlink="http://www.w3.org/1999/xlink" x="0px" y="0px"
	 viewBox="0 0 385 104" style="enable-background:new 0 0 385 104;" xml:space="preserve">
<style type="text/css">
	.st0{fill:#FFFFFF;}
	.st1{fill:#FFF9AE;}
	.st2{fill:#00AEEF;}
	.st3{fill:#00A94F;}
	.st4{fill:#F15D22;}
	.st5{fill:#D0232B;}
	.st6{display:none;}
	.st7{display:inline;}
</style>
<g id="Layer_1" xmlns:cc="http://creativecommons.org/ns#" xmlns:dc="http://purl.org/dc/elements/1.1/" xmlns:rdf="http://www.w3.org/1999/02/22-rdf-syntax-ns#">
	<desc>An open source online discussion forum and mailing list management software licensed under GNU GPL</desc>
	<g id="vlpa">
		<g>
			<path class="st0" d="M192.3,45.6c-3.2-1.6-6.7-2.3-10.3-2.3c-3.9-0.1-7.8,0.9-11.3,2.7c-5.6,3-9.5,8.4-10.5,14.7
				c-1,6.3,1.1,12.7,5.6,17.2c3.8,4,9.2,6,15.9,6c7.5,0,13.4-2.7,17.5-8.1l-7.6-5.2c-2.4,3-5.8,4.4-10.1,4.4c-3.1,0.1-6.2-1-8.5-3.2
				c-2.2-2.1-3.3-5-3.2-8c-0.1-3.1,1.1-6.1,3.4-8.3c2.4-2.2,5.5-3.4,8.8-3.2c1.8,0,3.5,0.3,5.2,0.9c1.7,0.8,3.2,1.9,4.5,3.3l8.1-4.4
				h0C197.9,49.3,195.3,47.1,192.3,45.6z"/>
			<path class="st0" d="M223.6,43.3C223.6,43.3,223.6,43.3,223.6,43.3C223.6,43.3,223.6,43.3,223.6,43.3L223.6,43.3z"/>
			<path class="st0" d="M117.4,22.2L117.4,22.2c-3.4,0-6.1,2.8-6.1,6.2c0,1.7,0.6,3.3,1.8,4.5c1.1,1.2,2.7,1.9,4.4,1.9
				c1.6,0,3.2-0.6,4.3-1.8c1.2-1.2,1.8-2.8,1.8-4.4c0-1.7-0.6-3.3-1.8-4.5C120.6,22.9,119,22.2,117.4,22.2z"/>
			<path class="st0" d="M145.5,59.4l-3.5-1.8c-1.1-0.5-2-1.1-2.9-1.8c-0.4-0.4-0.6-0.9-0.6-1.4c0-0.7,0.3-1.3,0.9-1.7
				c0.8-0.5,1.6-0.7,2.5-0.7c2,0,4.2,1.2,6.7,3.7l6-6l0,0c-3-4-7.7-6.4-12.7-6.4c-3.3-0.1-6.5,1-9,3.3c-2.3,2-3.6,4.8-3.5,7.8
				c0,4.7,3.1,8.7,9.4,11.8l3.3,1.6c2.8,1.4,4.2,2.9,4.2,4.4c0,0.9-0.5,1.6-1.2,2.1c-0.9,0.7-2,1-3.1,0.9c-1.4-0.1-2.8-0.5-4-1.2
				c-1.5-0.8-2.9-1.9-4-3.2l-6,6.5c3.1,4.3,8.1,6.7,13.4,6.6c4.2,0,7.6-1.1,10.1-3.4c4.3-4,5-10.5,1.7-15.3
				C151.9,63.2,149.3,61.3,145.5,59.4z"/>
			<rect x="112.6" y="43.3" class="st0" width="9.7" height="40.4"/>
			<path d="M51.8,0C23.7,0,0,22.8,0,51v52.8l51.9,0c28.2,0,51-23.7,51-51.9C102.8,23.7,80,0,51.8,0z"/>
			<path class="st0" d="M329.4,59.4l-3.5-1.8c-1.1-0.4-2-1-2.9-1.8c-0.4-0.4-0.6-0.9-0.6-1.4c0-0.7,0.3-1.3,0.9-1.7
				c0.8-0.5,1.6-0.7,2.5-0.7c2,0,4.2,1.2,6.6,3.7l6-6h0c-3-4-7.7-6.4-12.7-6.4c-3.3-0.1-6.5,1-9,3.3c-2.3,2-3.6,4.8-3.5,7.8
				c0,4.7,3.1,8.7,9.4,11.8l3.3,1.6c2.8,1.4,4.2,2.9,4.2,4.4c0,0.8-0.4,1.6-1.1,2.1c-0.9,0.7-2,1-3.1,0.9c-1.4-0.1-2.8-0.5-4.1-1.2
				c-1.5-0.8-2.9-1.9-4-3.2l-6,6.5c3.1,4.3,8.2,6.8,13.5,6.6c4.2,0,7.6-1.1,10.1-3.4c4.3-4,5-10.5,1.7-15.3
				C335.7,63.1,333.1,61.3,329.4,59.4z"/>
			<path class="st0" d="M384.5,64.5c0-6.4-1.9-11.5-5.7-15.4c-3.8-3.9-8.8-5.8-14.8-5.8c-5.4-0.1-10.5,2-14.3,5.8
				c-3.8,3.9-5.9,9.2-5.7,14.7c-0.2,5.4,1.9,10.5,5.7,14.3c3.8,3.8,8.7,5.7,14.8,5.7c3.5,0.1,6.9-0.6,10.1-2.1
				c2.9-1.5,5.5-3.7,7.3-6.4l-8.2-3.8c-2.5,2.5-5.8,3.8-9.3,3.8c-2.7,0.1-5.4-0.8-7.5-2.4c-2-1.7-3.3-4-3.6-6.5h31.1L384.5,64.5z
				 M353.8,58.8c0.8-1.9,2-3.7,3.5-5c2.1-1.5,4.6-2.3,7.1-2.3c2.3,0,4.6,0.7,6.5,2c1.8,1.3,3.1,3.1,3.7,5.2L353.8,58.8z"/>
			<path class="st0" d="M302.2,44.8c-1.6,1.1-2.8,2.6-3.6,4.4v-4.9h-8.3l0,38.6h9.6V65.4c0-5.4,0.5-9,1.5-10.9
				c1-1.8,2.3-2.8,3.8-2.8c1,0.1,1.9,0.4,2.8,0.8l3-8.3c-1.2-0.6-2.6-1-3.9-1C305.3,43.3,303.6,43.8,302.2,44.8z"/>
			<path class="st0" d="M233.9,46c-3.1-1.8-6.7-2.7-10.2-2.7c-11.1,0.1-20,9.2-20,20.3c-0.1,5.4,2,10.6,5.9,14.3
				c3.7,3.8,8.8,6,14.2,5.9c3.6,0,7.2-0.9,10.3-2.7c3.1-1.8,5.6-4.3,7.4-7.4c1.8-3.1,2.7-6.6,2.7-10.2
				C244.1,56.3,240.2,49.6,233.9,46z M231.3,71.6c-2,2.1-4.7,3.2-7.6,3.2c-2.8,0.1-5.6-1.1-7.5-3.1c-2-2.2-3.1-5.1-3-8.2
				c-0.1-3,1-5.8,3-8c1.9-2.1,4.7-3.2,7.5-3.1c2.8-0.1,5.6,1,7.6,3.1c2,2.2,3.1,5.1,3,8.1C234.5,66.5,233.4,69.5,231.3,71.6z"/>
			<path class="st0" d="M274.2,63.2c0,3.6-0.2,6-0.6,7.1c-0.5,1.4-1.3,2.6-2.5,3.4c-1.2,0.8-2.7,1.2-4.1,1.1c-1.4,0-2.9-0.4-4.1-1.2
				c-1.1-0.8-2-2-2.4-3.3c-0.6-2.5-0.9-5-0.7-7.5V44.3H250v16.1c0,6.2,0.4,10.4,1.1,12.8c0.9,3.2,2.9,6,5.5,7.9
				c2.6,1.9,6,2.8,10.3,2.8c3.4,0.1,6.7-0.7,9.6-2.4c2.6-1.7,4.6-4.1,5.8-7c1.1-2.5,1.6-7.1,1.6-13.8V44.3h-9.7V63.2z"/>
		</g>
		<path class="st1" d="M52.4,19.7c-11.1,0-21.5,5.9-27.1,15.4s-5.9,21.4-0.6,31.2l-5.7,18.4l20.5-4.6c11.8,5.3,25.6,2.9,34.9-6
			c9.3-8.9,12.3-22.6,7.4-34.6C76.9,27.6,65.3,19.7,52.4,19.7L52.4,19.7z"/>
		<path class="st2" d="M77.1,70.9c-9,11.3-24.5,15.1-37.7,9.2l-20.5,4.7l20.9-2.5C53.6,90.5,71.4,86.9,81,74s8.1-30.9-3.6-41.9
			C86.2,43.6,86.1,59.6,77.1,70.9L77.1,70.9z"/>
		<path class="st3" d="M75.3,64.9C67.6,77.1,52.5,82.5,38.8,78l-19.9,6.8l20.5-4.7c14.6,6.6,31.9,1.2,40.1-12.6
			c8.2-13.8,4.8-31.5-7.9-41.3C81.5,36.8,83.1,52.7,75.3,64.9L75.3,64.9z"/>
		<path class="st4" d="M26.5,67.1c-5.7-13.8-1-29.7,11.3-38.2c12.3-8.5,28.9-7.1,39.7,3.2C67.4,19,49,15.7,35.1,24.7
			c-13.9,9-18.5,27.1-10.5,41.7l-5.7,18.4L26.5,67.1z"/>
		<path class="st5" d="M24.6,66.4c-7.1-13.1-4.1-29.4,7.3-39.1c11.4-9.7,27.9-10.1,39.8-1c-11.3-11.9-30-13.2-42.8-2.8
			s-15.5,28.8-6.2,42.4l-3.8,18.9L24.6,66.4z"/>
	</g>
</g>
<g id="Layer_2" class="st6">
	<path class="st7" d="M15,51.5l51.9-0.1"/>
</g>
</svg>
